<svg width="300" height="600" viewBox="0 0 300 600" xmlns="http://www.w3.org/2000/svg">
  <rect width="300" height="600" fill="url(#grad)" rx="40"/>
  <linearGradient id="grad" x1="0" y1="0" x2="0" y2="1">
    <stop offset="0%" stop-color="#FF69B4"/>
    <stop offset="100%" stop-color="#4B0082"/>
  </linearGradient>
  <rect x="20" y="40" width="260" height="520" fill="#000" rx="30" opacity="0.8"/>
  <circle cx="150" cy="300" r="120" fill="none" stroke="#FFF" stroke-width="2"/>
  <path d="M150 300 L150 180" stroke="#FFF" stroke-width="2" transform="rotate(0 150 300)"/>
  <text x="150" y="160" fill="#FFF" text-anchor="middle" font-size="20" transform="rotate(0 150 300)">TRUTH</text>
  <path d="M150 300 L150 180" stroke="#FFF" stroke-width="2" transform="rotate(45 150 300)"/>
  <text x="150" y="160" fill="#FFF" text-anchor="middle" font-size="20" transform="rotate(45 150 300)">DARE</text>
  <path d="M150 300 L150 180" stroke="#FFF" stroke-width="2" transform="rotate(90 150 300)"/>
  <text x="150" y="160" fill="#FFF" text-anchor="middle" font-size="20" transform="rotate(90 150 300)">TRUTH</text>
  <path d="M150 300 L150 180" stroke="#FFF" stroke-width="2" transform="rotate(135 150 300)"/>
  <text x="150" y="160" fill="#FFF" text-anchor="middle" font-size="20" transform="rotate(135 150 300)">DARE</text>
  <path d="M150 300 L150 180" stroke="#FFF" stroke-width="2" transform="rotate(180 150 300)"/>
  <text x="150" y="160" fill="#FFF" text-anchor="middle" font-size="20" transform="rotate(180 150 300)">TRUTH</text>
  <path d="M150 300 L150 180" stroke="#FFF" stroke-width="2" transform="rotate(225 150 300)"/>
  <text x="150" y="160" fill="#FFF" text-anchor="middle" font-size="20" transform="rotate(225 150 300)">DARE</text>
  <path d="M150 300 L150 180" stroke="#FFF" stroke-width="2" transform="rotate(270 150 300)"/>
  <text x="150" y="160" fill="#FFF" text-anchor="middle" font-size="20" transform="rotate(270 150 300)">TRUTH</text>
  <path d="M150 300 L150 180" stroke="#FFF" stroke-width="2" transform="rotate(315 150 300)"/>
  <text x="150" y="160" fill="#FFF" text-anchor="middle" font-size="20" transform="rotate(315 150 300)">DARE</text>
  <polygon points="150,180 160,200 140,200" fill="#FFF" transform="rotate(0 150 300)" />
  <text x="150" y="100" fill="#FFF" text-anchor="middle" font-size="24">Liam's Turn</text>
</svg>